Coordinates
version=1
nRows=14
nColumns=36
inDegrees=yes

Units are S.I. units (second, meters, Newtons, ...)
If the header above contains a line with 'inDegrees', this indicates whether rotational values are in degrees (yes) or radians (no).

endheader
time	pelvis_tilt	pelvis_list	pelvis_rotation	pelvis_tx	pelvis_ty	pelvis_tz	hip_flexion_r	hip_adduction_r	hip_rotation_r	knee_angle_r	knee_angle_r_beta	ankle_angle_r	subtalar_angle_r	mtp_angle_r	hip_flexion_l	hip_adduction_l	hip_rotation_l	knee_angle_l	knee_angle_l_beta	ankle_angle_l	subtalar_angle_l	mtp_angle_l	lumbar_extension	lumbar_bending	lumbar_rotation	arm_flex_r	arm_add_r	arm_rot_r	elbow_flex_r	pro_sup_r	arm_flex_l	arm_add_l	arm_rot_l	elbow_flex_l	pro_sup_l
      3.60000000	     10.21943390	     -3.74691510	     -1.34974358	      1.53010063	      1.00399698	     -0.27482148	    -12.99421425	     -0.28831255	      0.70723433	      2.39790084	      0.04185126	     18.02367510	      9.56577301	     -7.49999987	    -15.11640660	     -8.90168364	     -4.19150464	      0.40594803	      0.00708513	     17.70352062	      7.86128851	     -7.49999987	    -20.76657244	      5.77871353	      0.45968401	     12.78183682	    -18.01109788	     15.12476705	     64.18710300	     77.77649239	      5.99669043	    -18.12719829	    -11.05950404	     37.62887456	     81.39230060
      3.61666670	     10.58303534	     -3.68118938	     -1.26701592	      1.53012643	      1.00497029	     -0.27507948	    -13.32069557	     -0.38943968	      0.86927453	      2.54592866	      0.04443484	     18.29483370	      9.37035690	     -7.49999987	    -15.41417067	     -8.84585789	     -4.08411971	      0.44350874	      0.00774069	     17.83105820	      7.66318285	     -7.49999987	    -21.12777891	      5.73671033	      0.53716717	     12.31568839	    -18.24705305	     14.81114770	     65.49882321	     80.35698702	      6.21104054	    -17.87814446	    -11.76182439	     38.71818540	     84.73900865
      3.63333330	     10.83391646	     -3.60025217	     -1.21245716	      1.53310588	      1.00758687	     -0.27789037	    -13.60832148	     -0.52257502	      0.95491222	      2.64858401	      0.04622651	     18.52438742	      9.26761248	     -7.49999987	    -15.67294637	     -8.73939109	     -4.06290515	      0.45749642	      0.00798482	     17.85519499	      7.59903373	     -7.49999987	    -21.13428478	      5.75219632	      0.25283378	     11.54716047	    -18.29484843	     14.89318929	     65.19190765	     80.35558668	      6.00701694	    -17.50498581	    -11.72907912	     38.72024602	     84.74249363
      3.65000000	     11.22070034	     -3.53059362	     -1.13676237	      1.52901545	      1.01458349	     -0.27529395	    -14.05310589	     -0.59454808	      1.34459739	      2.61766611	      0.04568689	     18.62857599	      8.87921644	     -7.49999987	    -16.00791512	     -8.67833405	     -3.88104172	      0.45028460	      0.00785895	     17.80137352	      7.43560871	     -7.49999987	    -21.65358061	      5.59478154	      0.26929414	     11.30119526	    -17.82792291	     14.54809011	     63.24215055	     78.85834023	      6.23202357	    -16.89455604	    -11.91603409	     38.75995363	     83.00836605
      3.66666670	     11.34313321	     -3.46719345	     -1.05296978	      1.52810043	      1.01637411	     -0.27543047	    -14.17142729	     -0.66006005	      1.23938849	      2.65830004	      0.04639609	     18.80567348	      9.12418020	     -7.49999987	    -16.07640129	     -8.60708800	     -3.59579019	      0.44393975	      0.00774821	     17.67277550	      7.05400067	     -7.49999987	    -21.66920032	      5.56592815	      0.06737042	     11.21788403	    -17.40097913	     15.00796634	     60.06612226	     77.23874957	      6.44803344	    -16.21843850	    -11.38766612	     37.73393739	     81.33233853
      3.68333330	     11.55513076	     -3.45423567	     -1.01810793	      1.53215704	      1.01648530	     -0.27271084	    -14.41934592	     -0.65381007	      1.32068054	      2.67617849	      0.04670813	     18.90135266	      9.04939161	     -7.49999987	    -16.28379469	     -8.59860678	     -3.59547719	      0.43888300	      0.00765995	     17.56480489	      7.02718626	     -7.49999987	    -22.02284535	      5.56669084	     -0.03623539	     10.20998742	    -17.38293750	     15.11020170	     59.23708969	     77.24559427	      5.87676237	    -15.48878115	    -11.19600362	     37.52765635	     81.38583295
      3.70000000	     11.98932201	     -3.48987114	     -1.01639323	      1.53063962	      1.01608010	     -0.27265143	    -14.93924187	     -0.60452489	      1.48353847	      2.56575470	      0.04478087	     18.90110440	      9.01689344	     -7.49999987	    -16.73667252	     -8.63205954	     -3.48731932	      0.40831262	      0.00712640	     17.45440871	      6.68507029	     -7.49999987	    -22.44591569	      5.45182828	      0.24258323	      9.99498244	    -16.75948172	     14.59759845	     55.38237608	     76.61059064	      6.03827728	    -14.57714644	    -10.62289352	     36.78355272	     80.92668351
      3.71666670	     11.91348768	     -3.51748212	     -1.07628494	      1.53092372	      1.01345454	     -0.27230148	    -14.84990763	     -0.55786173	      1.70781143	      2.58666045	      0.04514574	     18.89375266	      8.87671810	     -7.49999987	    -16.66429353	     -8.65815535	     -3.52039992	      0.40399791	      0.00705109	     17.37011261	      6.57013883	     -7.49999987	    -21.89915370	      5.43212909	     -0.02484430	      9.62653346	    -15.96182784	     14.73368771	     51.62662995	     75.54527585	      5.61550936	    -14.09091233	     -9.29328704	     35.22877963	     79.98924435
      3.73333330	     12.12517467	     -3.55083354	     -1.07753875	      1.53811630	      1.00673763	     -0.27236320	    -15.18448018	     -0.51751550	      1.77090233	      2.52480114	      0.04406609	     18.96516783	      8.91105928	     -7.49999987	    -17.00534074	     -8.67299544	     -3.54859988	      0.39028299	      0.00681172	     17.34646757	      6.45328048	     -7.49999987	    -21.60423730	      5.47885594	      0.03703263	      8.24183428	    -15.69643376	     14.79948550	     49.13365678	     73.83669551	      4.44573088	    -13.25688681	     -8.32536015	     34.35612511	     78.04977388
      3.75000000	     12.34863799	     -3.57484321	     -1.11612219	      1.53798693	      1.00451262	     -0.27212560	    -15.51724557	     -0.51160366	      1.91589057	      2.48187041	      0.04331681	     19.08551494	      8.85412332	     -7.49999987	    -17.36202629	     -8.67691898	     -3.52503955	      0.38386617	      0.00669973	     17.37545556	      6.27502303	     -7.49999987	    -21.38677390	      5.53325093	      0.25438968	      7.08701381	    -15.39997835	     14.39844842	     46.10626534	     73.42866219	      3.35376594	    -12.44738519	     -7.63576371	     33.63134884	     77.78087494
      3.76666670	     12.75910483	     -3.57351306	     -1.15526217	      1.54523520	      1.00295655	     -0.27231935	    -16.08857170	     -0.56409848	      1.96056414	      2.50772031	      0.04376798	     19.24437950	      8.77161427	     -7.49999987	    -17.97880758	     -8.62174201	     -3.53140534	      0.36563074	      0.00638146	     17.38436906	      6.16350662	     -7.49999987	    -21.41784081	      5.60183861	      0.26322887	      5.34246345	    -15.52892724	     14.47133127	     45.07452988	     73.43509203	      1.80174816	    -11.66367584	     -7.46832011	     33.12600220	     77.81887770
      3.78333330	     13.02407411	     -3.59314646	     -1.14612562	      1.54486778	      1.00605827	     -0.27246620	    -16.62220654	     -0.56413131	      2.05178243	      2.24516366	      0.03918550	     19.31784971	      8.84623071	     -7.49999987	    -18.41031763	     -8.62806506	     -3.43009747	      0.33270523	      0.00580680	     17.40088834	      5.98059761	     -7.49999987	    -21.06695803	      5.58734906	      0.51876578	      4.80909713	    -14.73104425	     13.24857873	     39.24725545	     72.35761449	      1.05240097	    -10.64133135	     -6.81806121	     30.41926936	     76.69030185
      3.80000000	     13.33066314	     -3.63529225	     -1.24716494	      1.54381123	      1.00568466	     -0.27187799	    -17.08891935	     -0.56475735	      2.34738253	      2.18149100	      0.03807420	     19.39104144	      8.57721474	     -7.49999987	    -18.90193873	     -8.61852858	     -3.46037557	      0.31201269	      0.00544565	     17.48017915	      5.91630731	     -7.49999987	    -20.96670275	      5.61765809	      0.71893545	      4.18127581	    -14.40332520	     12.71990745	     35.45744715	     72.17858125	      0.17489034	     -9.86225897	     -6.20379201	     27.97550832	     76.31368121
      3.81666670	     13.61455973	     -3.68507754	     -1.33426912	      1.54391896	      1.00607780	     -0.27186802	    -17.45271310	     -0.55155788	      2.56198716	      2.24723955	      0.03922173	     19.50921830	      8.44303434	     -7.49999987	    -19.31288836	     -8.62571883	     -3.46442374	      0.31241815	      0.00545273	     17.50983550	      5.83302268	     -7.49999987	    -20.98015328	      5.66243836	      0.96602944	      3.62253555	    -14.23005176	     12.18444979	     31.59588103	     72.03904224	     -0.53529693	     -9.18530251	     -5.77860353	     25.73332974	     75.95358848
